<svg xmlns="http://www.w3.org/2000/svg" width="12.524" height="10.402" viewBox="0 0 12.524 10.402">
    <g id="prefix__back" transform="translate(0 -41.674)">
        <g id="prefix__Group_2295" data-name="Group 2295" transform="translate(0 41.674)">
            <path id="prefix__Path_3072" d="M11.819 45.893h.02-8.38l2.634-2.64a.692.692 0 0 0 0-.973l-.41-.41a.686.686 0 0 0-.968 0L.2 46.389a.69.69 0 0 0 0 .971l4.516 4.516a.686.686 0 0 0 .968 0l.41-.41a.678.678 0 0 0 .2-.484.658.658 0 0 0-.2-.475l-2.665-2.654h8.4a.71.71 0 0 0 .695-.7v-.58a.7.7 0 0 0-.705-.68z" data-name="Path 3072" transform="translate(0 -41.674)" style="fill:#727070"/>
        </g>
    </g>
</svg>
